<?xml version='1.0' encoding='iso-8859-1'?>
<svg version="1.1" xmlns="http://www.w3.org/2000/svg" viewBox="0 0 227.46 227.46" xmlns:xlink="http://www.w3.org/1999/xlink" enable-background="new 0 0 227.46 227.46">
  <g>
    <path d="M173.062,135.189c-4.667-4.668-12.304-4.668-16.971,0l-14.85,14.85L83.259,92.056l14.85-14.85   c4.667-4.668,4.667-12.305,0-16.971L56.39,18.517c-4.667-4.668-12.304-4.668-16.971,0L9.72,48.214   c-2.961,2.961-4.26,7.307-3.789,11.428c0.272,2.373,8.776,39.572,67.767,98.562c58.99,58.99,98.405,68.902,98.742,68.971   c4.463,0.9,9.39-0.344,12.643-3.598l29.713-29.682c4.658-4.676,4.651-12.32-0.016-16.986L173.062,135.189z"/>
    <path d="m158.086,109.034c0-21.115 14.075-41.574 14.075-41.574s14.077,20.459 14.077,41.574c41.483,0 39.287-41.506 29.295-62.691-2.101-4.457-8.121-5.242-11.287-1.467-8.119,9.678-17.721,15.146-17.721,15.146s7.606-22.34-7.493-45.221c-4.398-6.666-11.085-11.182-16.82-14.07-4.532-2.281-9.896,1.053-9.805,6.125 0.396,21.637-15.258,34.494-22.843,45.871-14.076,21.116-7.038,56.307 28.522,56.307z"/>
  </g>
</svg>
