<?xml version="1.0" encoding="iso-8859-1"?>
<!-- Generator: Adobe Illustrator 18.0.0, SVG Export Plug-In . SVG Version: 6.00 Build 0)  -->
<!DOCTYPE svg PUBLIC "-//W3C//DTD SVG 1.1//EN" "http://www.w3.org/Graphics/SVG/1.1/DTD/svg11.dtd">
<svg version="1.1" id="Capa_1" xmlns="http://www.w3.org/2000/svg" xmlns:xlink="http://www.w3.org/1999/xlink" x="0px" y="0px"
	 viewBox="0 0 291.648 291.648" style="enable-background:new 0 0 291.648 291.648;" xml:space="preserve">
<g>
	<path d="M224.441,211.335h-4.11v-76.935c0-41.083-33.423-74.506-74.506-74.506s-74.506,33.423-74.506,74.506v76.935h-4.11
		c-16.759,0-30.393,13.634-30.393,30.393v39.92c0,5.523,4.477,10,10,10h198.02c5.523,0,10-4.477,10-10v-39.92
		C254.834,224.97,241.2,211.335,224.441,211.335z M91.318,134.401c0-30.055,24.452-54.506,54.506-54.506
		s54.506,24.452,54.506,54.506v76.935H91.318V134.401z M234.834,271.648H56.814v-29.92c0-5.731,4.662-10.393,10.393-10.393h157.233
		c5.731,0,10.393,4.662,10.393,10.393V271.648z"/>
	<path d="M145.824,39.999c5.523,0,10-4.477,10-10V10c0-5.523-4.477-10-10-10s-10,4.477-10,10v19.999
		C135.824,35.522,140.301,39.999,145.824,39.999z"/>
	<path d="M56.746,71.039c1.953,1.953,4.512,2.929,7.071,2.929s5.119-0.976,7.071-2.929c3.905-3.905,3.905-10.237,0-14.143
		L56.748,42.755c-3.905-3.905-10.237-3.905-14.143,0c-3.905,3.905-3.905,10.237,0,14.143L56.746,71.039z"/>
	<path d="M227.831,73.967c2.559,0,5.119-0.976,7.071-2.929l14.141-14.141c3.905-3.905,3.905-10.237,0-14.143
		c-3.905-3.905-10.237-3.905-14.143,0L220.76,56.896c-3.905,3.905-3.905,10.237,0,14.143
		C222.712,72.991,225.272,73.967,227.831,73.967z"/>
	<path d="M145.824,90.827c-24.027,0-43.575,19.547-43.575,43.575c0,5.523,4.477,10,10,10s10-4.477,10-10
		c0-12.999,10.576-23.575,23.575-23.575c5.523,0,10-4.477,10-10S151.347,90.827,145.824,90.827z"/>
</g>
<g>
</g>
<g>
</g>
<g>
</g>
<g>
</g>
<g>
</g>
<g>
</g>
<g>
</g>
<g>
</g>
<g>
</g>
<g>
</g>
<g>
</g>
<g>
</g>
<g>
</g>
<g>
</g>
<g>
</g>
</svg>
