<?xml version="1.0" encoding="iso-8859-1"?>
<!-- Generator: Adobe Illustrator 18.0.0, SVG Export Plug-In . SVG Version: 6.00 Build 0)  -->
<!DOCTYPE svg PUBLIC "-//W3C//DTD SVG 1.1//EN" "http://www.w3.org/Graphics/SVG/1.1/DTD/svg11.dtd">
<svg version="1.1" id="Capa_1" xmlns="http://www.w3.org/2000/svg" xmlns:xlink="http://www.w3.org/1999/xlink" x="0px" y="0px"
	 viewBox="0 0 483.234 483.234" style="enable-background:new 0 0 483.234 483.234;" xml:space="preserve">
<g>
	<path d="M483.234,245.702c0-0.385-0.032-0.77-0.095-1.15l-17.115-102.837c-0.563-3.376-3.482-5.851-6.905-5.851h-33.992v-9.708
		c0-10.31-8.387-18.696-18.696-18.696c-10.309,0-18.695,8.387-18.695,18.696v9.708h-42.489c-3.866,0-7,3.134-7,7v19.872h-30.29
		v-19.872c0-3.866-3.134-7-7-7h-9.376V99.807c0-1.958-0.82-3.826-2.261-5.152c-1.44-1.324-3.362-1.992-5.323-1.823L22.792,114.687
		c-3.627,0.304-6.417,3.336-6.417,6.976v14.202H7c-3.866,0-7,3.134-7,7v165.36v0.002c0,0,0,0,0,0.001v14.203
		c0,10.806,8.79,19.597,19.596,19.597h50.7c-0.106,1.254-0.173,2.519-0.173,3.799c0,24.593,20.009,44.6,44.602,44.6h0.004
		c24.592,0,44.599-20.008,44.599-44.6c0-1.28-0.067-2.545-0.173-3.799h187.867c-0.107,1.254-0.173,2.519-0.173,3.799
		c0,24.594,20.01,44.602,44.605,44.602c24.593,0,44.601-20.008,44.601-44.602c0-1.28-0.066-2.545-0.173-3.799h40.352
		c3.866,0,7-3.134,7-7v-26.801v-0.001v-0.001V245.702z M401.735,126.157c0-2.59,2.106-4.696,4.695-4.696
		c2.59,0,4.696,2.106,4.696,4.696v9.708h-9.392V126.157z M352.246,149.865h100.941l16.047,96.416v54.944H352.246V149.865z
		 M277.58,135.865h-14.328v-27.248l14.328-1.199V135.865z M63.756,125.308l25.899-2.167v12.724H63.756V125.308z M103.655,121.97
		l25.9-2.168c0,0.012-0.001,0.022-0.001,0.034v16.028h-25.899V121.97z M143.445,118.64l26.009-2.176v19.4h-25.899v-16.028
		C143.554,119.428,143.512,119.03,143.445,118.64z M183.454,115.294l25.899-2.167v22.738h-25.899V115.294z M223.353,111.955
		l25.899-2.167v26.077h-25.899V111.955z M30.376,128.101l19.38-1.621v9.385h-19.38V128.101z M293.956,149.865v151.362
		l-179.124,0.001c-0.036,0-0.071-0.003-0.106-0.003c-0.036,0-100.726,0.003-100.726,0.003V149.865H293.956z M19.596,328.028
		c-3.085,0-5.596-2.511-5.596-5.597v-7.203h68.32c-3.517,3.723-6.402,8.044-8.48,12.8H19.596z M114.729,376.427h-0.003
		c-16.874,0-30.602-13.727-30.602-30.6c0-16.874,13.728-30.602,30.602-30.602s30.603,13.728,30.603,30.602
		C145.328,362.7,131.602,376.427,114.729,376.427z M177.643,328.028l-16.702-12.8l198.106-0.001
		c-3.517,3.723-6.402,8.045-8.48,12.801H177.643z M391.455,376.428h-0.002c-16.875,0-30.604-13.728-30.604-30.602
		c0-16.874,13.729-30.602,30.604-30.602c16.874,0,30.603,13.728,30.603,30.602C422.056,362.701,408.328,376.428,391.455,376.428z
		 M469.234,328.028h-17.407l-16.702-12.801h34.109V328.028z"/>
	<path d="M445.919,249.629c3.866,0,7-3.134,7-7v-15.925c0-0.385-0.032-0.77-0.095-1.149l-9.48-56.967
		c-0.563-3.376-3.482-5.851-6.905-5.851h-41.703c-3.866,0-7,3.134-7,7v72.892c0,3.866,3.134,7,7,7H445.919z M401.735,235.629v-34.86
		l37.184,27.27v7.591H401.735z"/>
	<path d="M114.725,333.294c-6.912,0-12.534,5.622-12.534,12.533c0,6.912,5.623,12.535,12.534,12.535
		c6.912,0,12.534-5.623,12.534-12.535C127.259,338.916,121.636,333.294,114.725,333.294z"/>
	<path d="M391.453,333.294c-6.912,0-12.536,5.622-12.536,12.533c0,6.912,5.624,12.535,12.536,12.535
		c6.911,0,12.534-5.623,12.534-12.535C403.987,338.916,398.364,333.294,391.453,333.294z"/>
	<path d="M163.465,236.22h6.961v36.78c0,3.866,3.134,7,7,7h86.594c3.866,0,7-3.134,7-7V178.09c0-3.866-3.134-7-7-7h-86.594
		c-3.866,0-7,3.134-7,7v36.78h-6.961c-3.866,0-7,3.134-7,7v7.351C156.465,233.087,159.599,236.22,163.465,236.22z M184.426,185.09
		h72.594v80.911h-72.594v-29.78h6.442c3.866,0,7-3.134,7-7v-7.351c0-3.866-3.134-7-7-7h-6.442V185.09z"/>
</g>
<g>
</g>
<g>
</g>
<g>
</g>
<g>
</g>
<g>
</g>
<g>
</g>
<g>
</g>
<g>
</g>
<g>
</g>
<g>
</g>
<g>
</g>
<g>
</g>
<g>
</g>
<g>
</g>
<g>
</g>
</svg>
